<svg xmlns="http://www.w3.org/2000/svg" viewBox="-1.5 -5 110 110">
  <path fill="#004" d="M21.16 27c.89 0 1.88.08 2.98.23 1.18.07 2.32.22 3.42.44 1.1.14 2.1.33 2.97.55.96.15 1.66.3 2.1.44l-.88 4.46-.89 4.47c-.8-.3-2.16-.63-4.07-1a31.65 31.65 0 0 0-7.17-.66c-1.91 0-3.82.23-5.73.67-1.84.36-3.05.62-3.64.77v48.17H0v-54.9a64.94 64.94 0 0 1 9.04-2.42c3.6-.81 7.64-1.21 12.12-1.21Zm26.47 3.75a27.9 27.9 0 0 1 5.62-2.53 27.13 27.13 0 0 1 8.82-1.32c4.12 0 7.76.73 10.92 2.2a22.67 22.67 0 0 1 8.15 6.17 26.5 26.5 0 0 1 4.96 9.48 39.62 39.62 0 0 1 1.77 12.13c0 4.63-.7 8.82-2.1 12.56a25.76 25.76 0 0 1-5.73 9.37A25.51 25.51 0 0 1 71 84.77c-3.53 1.4-7.5 2.1-11.9 2.1-4.78 0-9-.34-12.68-1a99.6 99.6 0 0 1-9.04-1.99V1.76L47.63 0zm0 45.86c1.03.3 2.46.59 4.3.88 1.91.22 4.26.33 7.06.33 5.5 0 9.92-1.8 13.22-5.4 3.31-3.67 4.96-8.85 4.96-15.54 0-2.94-.29-5.7-.88-8.27A18.07 18.07 0 0 0 73.43 42a13.13 13.13 0 0 0-5.18-4.41 15.69 15.69 0 0 0-7.5-1.66c-2.8 0-5.36.48-7.72 1.44a21.1 21.1 0 0 0-5.4 2.97z"/>
  <path fill="#f00" d="M105.54 85.48H95.29V28.16h10.25zm-5.18-67.68q-2.76 0-4.74-1.77-1.88-1.87-1.88-4.96 0-3.08 1.88-4.85 1.98-1.87 4.74-1.87 2.75 0 4.63 1.87 1.98 1.77 1.98 4.85 0 3.09-1.98 4.96-1.88 1.77-4.63 1.77z"/>
  <path fill="#004" d="M1.58 99.8H.21v-7.68h1.37Zm-.7-9.07a.92.92 0 0 1-.63-.24.9.9 0 0 1-.25-.67c0-.27.08-.49.25-.65a.9.9 0 0 1 .64-.25c.24 0 .45.09.62.25.18.16.26.38.26.65 0 .28-.08.5-.26.67a.87.87 0 0 1-.62.24zm3.07 1.6c.31-.07.73-.15 1.26-.24.52-.1 1.12-.14 1.8-.14.61 0 1.12.1 1.52.27.4.17.73.4.97.72.24.31.42.68.51 1.11.1.44.15.92.15 1.44v4.32H8.8v-4.03c0-.47-.04-.87-.1-1.2-.07-.34-.17-.61-.32-.82-.15-.2-.34-.36-.59-.45-.25-.1-.55-.14-.92-.14a7.33 7.33 0 0 0-1.54.14v6.5H3.95Zm10.28 6.49c.56 0 .98-.08 1.24-.23a.75.75 0 0 0 .42-.7c0-.34-.14-.6-.4-.8-.27-.2-.7-.42-1.32-.67l-.86-.35c-.26-.13-.5-.28-.7-.45a1.9 1.9 0 0 1-.47-.6 1.94 1.94 0 0 1-.17-.88c0-.68.25-1.22.75-1.61.5-.4 1.19-.6 2.06-.6a5.26 5.26 0 0 1 1.75.24c.14.03.25.06.33.1l-.25 1.18a4.25 4.25 0 0 0-1.83-.37c-.39 0-.72.08-1 .23a.74.74 0 0 0-.44.71c0 .17.03.32.09.45.07.13.17.24.3.35.13.1.3.2.5.28.2.1.43.19.7.29.37.13.7.27.99.4.28.14.52.29.72.47.2.18.36.4.47.65.11.25.17.55.17.92 0 .7-.27 1.24-.8 1.6a3.9 3.9 0 0 1-2.25.56 5.66 5.66 0 0 1-2.38-.43l.25-1.19.75.27c.35.12.8.18 1.38.18zm6.1-6.7h2.9v1.15h-2.9v3.55c0 .38.02.7.08.96.06.25.15.45.27.6.12.13.26.23.44.29a3 3 0 0 0 2.14-.25l.27 1.14a4.72 4.72 0 0 1-3.2.22c-.34-.14-.61-.34-.82-.6-.2-.27-.36-.6-.44-.98a7 7 0 0 1-.12-1.37v-6.86l1.37-.24zm7.5-.17.4.03.45.06.4.08.28.06-.24 1.2a4.25 4.25 0 0 0-2.28-.13c-.24.04-.4.07-.48.1v6.46h-1.38v-7.37a8.71 8.71 0 0 1 2.84-.49zm8.99 7.64c-.32.07-.74.16-1.26.25-.51.09-1.11.13-1.8.13a3.9 3.9 0 0 1-1.49-.25c-.4-.18-.73-.43-.97-.74a2.98 2.98 0 0 1-.53-1.11c-.11-.43-.17-.91-.17-1.43v-4.32h1.38v4.02c0 .94.15 1.6.44 2.01.3.4.8.6 1.5.6a7.33 7.33 0 0 0 1.52-.14v-6.5h1.38zm2.36-7.25a10.88 10.88 0 0 1 3.05-.38c.5 0 .9.06 1.24.2.34.13.62.32.84.58l.33-.21a4.48 4.48 0 0 1 2.13-.58c.6 0 1.07.1 1.45.27.37.17.66.4.87.72.22.32.36.7.43 1.13.08.43.12.9.12 1.42v4.32h-1.38v-4.03c0-.45-.02-.84-.07-1.16-.04-.33-.12-.6-.25-.82a1.06 1.06 0 0 0-.5-.47c-.21-.1-.48-.16-.82-.16a3 3 0 0 0-1.76.51 7.51 7.51 0 0 1 .24 1.8v4.33h-1.38v-4.03c0-.45-.02-.84-.07-1.16-.05-.33-.14-.6-.27-.82a1.06 1.06 0 0 0-.5-.47c-.2-.1-.47-.16-.8-.16a7.11 7.11 0 0 0-1.52.14v6.5h-1.38zm12.3 3.64c0-.68.1-1.28.3-1.78.2-.51.46-.93.79-1.27.32-.34.7-.59 1.12-.75.43-.17.86-.26 1.3-.26 1.04 0 1.83.33 2.39.98.55.64.82 1.62.82 2.94v.24l-.01.25h-5.27c.06.8.3 1.4.7 1.82.4.42 1.03.62 1.9.62a4.72 4.72 0 0 0 1.97-.37l.18 1.16a6.16 6.16 0 0 1-4.05.13 3.33 3.33 0 0 1-1.91-2.1 5.59 5.59 0 0 1-.22-1.61zm5.29-.76a2.26 2.26 0 0 0-.47-1.52c-.32-.4-.76-.6-1.32-.6-.32 0-.6.06-.84.18a1.9 1.9 0 0 0-.61.48c-.17.2-.3.42-.4.68a3.6 3.6 0 0 0-.18.78zm3.42-2.88a10.88 10.88 0 0 1 3.06-.38c.6 0 1.12.08 1.52.26.4.17.73.4.96.72.25.31.42.68.52 1.11.1.44.15.92.15 1.44v4.32h-1.38v-4.03c0-.47-.03-.87-.1-1.2-.06-.34-.16-.61-.31-.82-.15-.2-.35-.36-.6-.45-.24-.1-.55-.14-.91-.14a7.33 7.33 0 0 0-1.54.14v6.5H60.2Zm9.77-.22h2.92v1.15h-2.92v3.55c0 .38.03.7.1.96.05.25.14.45.26.6.12.13.26.23.44.29a3 3 0 0 0 2.14-.25l.27 1.14a4.72 4.72 0 0 1-3.2.22c-.34-.14-.61-.34-.82-.6-.2-.27-.36-.6-.44-.98a7 7 0 0 1-.12-1.37v-6.86l1.37-.24zm7.26 6.7c.33 0 .62 0 .86-.02.26-.02.47-.05.64-.09v-2.29a4.56 4.56 0 0 0-1.95-.13c-.23.03-.44.1-.64.19-.19.09-.34.22-.47.38a.98.98 0 0 0-.2.64c0 .5.16.84.48 1.04.31.18.74.28 1.28.28zm-.11-6.9c.55 0 1.01.08 1.39.23a2.2 2.2 0 0 1 1.42 1.54c.1.35.14.74.14 1.18v4.8l-.5.1a23.2 23.2 0 0 1-2.5.2c-.43 0-.83-.04-1.2-.13a2.76 2.76 0 0 1-.94-.42c-.27-.2-.48-.45-.62-.77-.15-.31-.23-.7-.23-1.13 0-.43.09-.8.26-1.1.17-.3.41-.55.7-.74.3-.19.65-.32 1.04-.41a5.65 5.65 0 0 1 2.65.06v-.39a3 3 0 0 0-.08-.66 1.48 1.48 0 0 0-.26-.6c-.13-.17-.3-.31-.53-.41-.22-.1-.5-.16-.86-.16a6.16 6.16 0 0 0-1.95.3l-.17-1.15a7.2 7.2 0 0 1 2.23-.34zm6.52.2h2.91v1.15h-2.91v3.55c0 .38.03.7.09.96.06.25.15.45.26.6.12.13.27.23.45.29a3 3 0 0 0 2.14-.25l.27 1.14a4.72 4.72 0 0 1-3.21.22c-.34-.14-.6-.34-.81-.6-.21-.27-.36-.6-.45-.98a7 7 0 0 1-.12-1.37v-6.86l1.38-.24zm6.03 7.69H88.3v-7.7h1.37v3.85zm-.7-9.08a.92.92 0 0 1-.63-.24.9.9 0 0 1-.25-.67c0-.27.09-.49.25-.65a.9.9 0 0 1 .64-.25c.25 0 .45.09.62.25.18.16.27.38.27.65 0 .28-.1.5-.27.67a.87.87 0 0 1-.62.24zm9.86 5.23c0 .61-.09 1.17-.27 1.66-.17.5-.43.92-.75 1.27A3.3 3.3 0 0 1 95.2 100a3.45 3.45 0 0 1-3.34-2.38 4.87 4.87 0 0 1-.27-1.66c0-.6.1-1.15.27-1.64a3.28 3.28 0 0 1 1.9-2.1c.44-.2.92-.3 1.44-.3a3.53 3.53 0 0 1 2.59 1.11c.32.36.58.79.75 1.29.18.5.27 1.04.27 1.64zm-1.43 0c0-.87-.2-1.55-.6-2.05a1.87 1.87 0 0 0-1.58-.77c-.67 0-1.2.25-1.6.77a3.3 3.3 0 0 0-.57 2.05c0 .87.19 1.56.57 2.07.4.5.93.76 1.6.76s1.2-.25 1.58-.76c.4-.51.6-1.2.6-2.07zm3.37-3.62a10.88 10.88 0 0 1 3.06-.38c.61 0 1.12.08 1.52.26.4.17.73.4.96.72.25.31.42.68.52 1.11.1.44.15.92.15 1.44v4.32h-1.38v-4.03c0-.47-.03-.87-.1-1.2-.06-.34-.16-.61-.31-.82-.15-.2-.34-.36-.6-.45-.24-.1-.54-.14-.9-.14a7.33 7.33 0 0 0-1.55.14v6.5h-1.37z"/>
</svg>